<svg xmlns="http://www.w3.org/2000/svg" viewBox="0 0 350 72" width="350" height="72">
	<style>
		tspan { white-space:pre }
		.shp0 { fill: #ffffff } 
		.shp1 { fill: #b1b3b6 } 
		.txt2 { font-size: 26px;fill: #ffffff;font-family: "Bitstream Vera Serif";font-weight: 400 } 
	</style>
	<path id="Layer" class="shp0" d="M41.47 23.46L42.16 23.46L42.16 50.53L41.47 50.53L41.47 23.46Z" />
	<path id="Layer" class="shp0" d="M29.8 32.59L26.83 32.59L26.65 32.59L26.58 32.75L24.42 37.24L22.27 32.75L22.19 32.59L22.02 32.59L19.15 32.59L18.88 32.59L18.88 32.87L18.88 34.4L18.88 34.67L19.15 34.67L19.64 34.67L19.64 41.09L19.11 41.09L18.84 41.09L18.84 41.36L18.84 42.89L18.84 43.16L19.11 43.16L22.33 43.16L22.6 43.16L22.6 42.89L22.6 41.36L22.6 41.09L22.33 41.09L21.77 41.09L21.77 36.54L24.18 41.5L24.42 42.01L24.67 41.5L27.11 36.52L27.11 41.09L26.57 41.09L26.3 41.09L26.3 41.36L26.3 42.89L26.3 43.16L26.57 43.16L29.8 43.16L30.07 43.16L30.07 42.89L30.07 41.36L30.07 41.09L29.8 41.09L29.24 41.09L29.24 34.67L29.8 34.67L30.07 34.67L30.07 34.4L30.07 32.87L30.07 32.59L29.8 32.59L29.8 32.59Z" />
	<path id="Layer" fill-rule="evenodd" class="shp0" d="M11.35 41.08L11.35 43.15L7.29 43.15L7.29 41.07L7.91 41.07L7.45 40L4.1 40L3.63 41.08L4.23 41.08L4.23 43.16L0.16 43.16L0.16 41.08L1.32 41.08L4.11 34.63L3.5 34.63L3.5 32.56L8 32.56L8 34.63L7.43 34.63L10.22 41.08L11.35 41.08ZM5.78 36.13L5 37.93L6.55 37.93L5.78 36.13Z" />
	<path id="Layer" class="shp0" d="M26.38 24.54L3.77 24.54L3.46 24.54L3.46 24.85L3.46 30.89L3.46 31.2L3.77 31.2L7.68 31.2L7.99 31.2L7.99 30.89L7.99 28.65L12.81 28.65L12.81 44.57L10.57 44.57L10.26 44.57L10.26 44.88L10.26 48.78L10.26 49.1L10.57 49.1L19.59 49.1L19.9 49.1L19.9 48.78L19.9 44.88L19.9 44.57L19.59 44.57L17.34 44.57L17.34 28.65L22.14 28.65L22.14 30.86L22.14 31.18L22.45 31.18L26.38 31.18L26.7 31.18L26.7 30.86L26.7 24.85L26.7 24.54L26.38 24.54L26.38 24.54Z" />
	<path id="Layer" class="shp1" d="M18.02 46.42L18.97 45.44L18.97 48.14L18.02 47.22L18.02 46.42L18.02 46.42Z" />
	<path id="Layer" class="shp1" d="M16.42 45.51L15.47 46.45L15.47 26.77L16.42 27.73L16.42 45.51L16.42 45.51Z" />
	<path id="Layer" class="shp1" d="M5.38 26.43L4.39 25.47L25.29 25.47L24.05 26.43L5.38 26.43L5.38 26.43Z" />
	<path id="Layer" class="shp1" d="M25.8 30.3L24.84 29.39L24.84 26.96L25.8 25.98L25.8 30.3L25.8 30.3Z" />
	<path id="Layer" class="shp0" d="M67.18 28.6L66.18 28.6C66.17 28.42 66.16 28.25 66.13 28.08C66.1 27.9 66.06 27.73 66.01 27.56C65.97 27.4 65.91 27.23 65.84 27.07C65.77 26.91 65.69 26.75 65.6 26.6C65.54 26.51 65.48 26.42 65.4 26.34C65.33 26.26 65.25 26.19 65.17 26.12C65.08 26.06 64.99 26 64.9 25.95C64.8 25.9 64.7 25.85 64.6 25.82C64.5 25.79 64.41 25.77 64.31 25.75C64.21 25.73 64.11 25.72 64.01 25.7C63.91 25.69 63.81 25.68 63.71 25.68C63.61 25.67 63.51 25.67 63.41 25.67L61.63 25.67L61.63 36.18C61.63 36.26 61.63 36.35 61.63 36.43C61.63 36.52 61.64 36.6 61.65 36.69C61.66 36.77 61.68 36.85 61.69 36.94C61.71 37.02 61.73 37.1 61.76 37.18C61.79 37.24 61.82 37.3 61.86 37.36C61.9 37.41 61.95 37.46 62 37.51C62.05 37.55 62.11 37.59 62.16 37.63C62.22 37.66 62.29 37.69 62.35 37.71C62.46 37.75 62.57 37.78 62.68 37.8C62.79 37.83 62.91 37.85 63.02 37.87C63.14 37.88 63.25 37.89 63.36 37.9C63.48 37.91 63.6 37.91 63.71 37.9L63.71 38.9L56.54 38.9L56.54 37.9C56.69 37.92 56.84 37.92 56.98 37.92C57.13 37.91 57.28 37.89 57.42 37.86C57.57 37.83 57.71 37.78 57.85 37.72C57.98 37.67 58.11 37.6 58.24 37.52C58.31 37.43 58.38 37.33 58.43 37.23C58.48 37.12 58.52 37.01 58.56 36.9C58.59 36.79 58.61 36.68 58.62 36.56C58.63 36.44 58.63 36.33 58.62 36.21L58.62 25.71L57.1 25.71C56.98 25.71 56.85 25.71 56.73 25.71C56.6 25.72 56.48 25.73 56.35 25.74C56.23 25.75 56.1 25.76 55.98 25.78C55.86 25.8 55.73 25.82 55.61 25.85C55.51 25.88 55.41 25.92 55.31 25.97C55.22 26.02 55.12 26.08 55.04 26.15C54.95 26.22 54.87 26.29 54.8 26.37C54.73 26.45 54.67 26.54 54.61 26.63C54.52 26.78 54.45 26.94 54.38 27.1C54.31 27.26 54.26 27.43 54.22 27.59C54.17 27.76 54.14 27.94 54.12 28.11C54.1 28.28 54.1 28.46 54.1 28.63L53.1 28.63L53.1 24.55L67.18 24.55L67.18 28.6Z" />
	<path id="Layer" class="shp0" d="M81.12 34.14L81 38.84L68.28 38.84L68.28 37.84C68.43 37.86 68.58 37.86 68.72 37.86C68.87 37.85 69.02 37.83 69.16 37.8C69.31 37.77 69.45 37.72 69.59 37.67C69.72 37.61 69.85 37.54 69.98 37.46C70.05 37.37 70.12 37.27 70.17 37.17C70.22 37.06 70.26 36.95 70.3 36.84C70.33 36.73 70.35 36.62 70.36 36.5C70.37 36.38 70.37 36.27 70.36 36.15L70.36 27.15C70.36 27.07 70.36 26.98 70.36 26.9C70.36 26.81 70.35 26.73 70.34 26.64C70.33 26.56 70.32 26.48 70.3 26.4C70.28 26.31 70.26 26.23 70.24 26.15C70.21 26.09 70.18 26.03 70.14 25.97C70.1 25.92 70.06 25.87 70.01 25.82C69.96 25.78 69.91 25.73 69.85 25.7C69.79 25.66 69.73 25.63 69.67 25.61C69.56 25.57 69.45 25.54 69.33 25.51C69.22 25.49 69.1 25.47 68.98 25.45C68.87 25.43 68.75 25.42 68.63 25.42C68.52 25.41 68.4 25.41 68.28 25.42L68.28 24.42L80.13 24.42L80.32 28.13L79.32 28.13C79.29 27.97 79.25 27.82 79.2 27.66C79.15 27.51 79.1 27.36 79.03 27.21C78.97 27.06 78.9 26.91 78.82 26.77C78.75 26.63 78.66 26.49 78.57 26.36C78.51 26.28 78.44 26.2 78.37 26.13C78.29 26.06 78.21 26 78.13 25.94C78.04 25.89 77.95 25.84 77.86 25.8C77.77 25.76 77.67 25.72 77.57 25.7C77.44 25.68 77.31 25.66 77.17 25.64C77.04 25.62 76.91 25.61 76.77 25.6C76.64 25.59 76.51 25.58 76.37 25.58C76.24 25.58 76.1 25.58 75.97 25.58L73.37 25.58L73.37 30.63L74.82 30.63C74.91 30.63 75.01 30.63 75.1 30.63C75.2 30.63 75.29 30.62 75.39 30.61C75.48 30.6 75.57 30.58 75.66 30.57C75.76 30.55 75.85 30.53 75.94 30.5C76 30.48 76.06 30.45 76.11 30.42C76.16 30.39 76.21 30.35 76.26 30.31C76.3 30.27 76.34 30.22 76.38 30.17C76.41 30.11 76.44 30.06 76.46 30C76.49 29.91 76.52 29.81 76.54 29.72C76.57 29.62 76.59 29.52 76.6 29.43C76.62 29.33 76.63 29.23 76.64 29.13C76.65 29.04 76.66 28.94 76.66 28.84L77.66 28.84L77.66 33.59L76.66 33.59C76.66 33.49 76.65 33.39 76.65 33.29C76.64 33.2 76.62 33.1 76.61 33C76.59 32.9 76.57 32.81 76.54 32.71C76.51 32.62 76.48 32.52 76.45 32.43C76.43 32.37 76.4 32.32 76.36 32.27C76.32 32.21 76.28 32.17 76.24 32.12C76.19 32.08 76.14 32.04 76.09 32.01C76.04 31.98 75.98 31.95 75.92 31.93C75.83 31.9 75.74 31.88 75.65 31.86C75.56 31.85 75.46 31.83 75.37 31.82C75.28 31.81 75.18 31.8 75.09 31.8C75 31.8 74.9 31.8 74.81 31.8L73.37 31.8L73.37 35.3C73.37 35.86 73.37 36.3 73.37 36.53C73.37 36.59 73.38 36.65 73.4 36.7C73.41 36.76 73.42 36.82 73.44 36.87C73.46 36.92 73.49 36.98 73.51 37.03C73.54 37.08 73.57 37.13 73.6 37.18C73.64 37.23 73.68 37.27 73.72 37.31C73.77 37.35 73.82 37.39 73.87 37.42C73.92 37.45 73.97 37.48 74.03 37.5C74.08 37.52 74.14 37.54 74.2 37.55C74.3 37.57 74.39 37.59 74.49 37.61C74.59 37.63 74.69 37.64 74.79 37.65C74.88 37.66 74.98 37.67 75.08 37.67C75.18 37.67 75.28 37.67 75.38 37.67L76.53 37.67C76.65 37.67 76.78 37.67 76.9 37.66C77.03 37.66 77.15 37.64 77.27 37.63C77.39 37.61 77.52 37.59 77.64 37.57C77.76 37.54 77.88 37.51 78 37.48C78.13 37.44 78.25 37.38 78.37 37.32C78.49 37.26 78.61 37.18 78.72 37.1C78.83 37.02 78.93 36.93 79.03 36.84C79.12 36.74 79.21 36.64 79.29 36.53C79.41 36.35 79.53 36.17 79.63 35.98C79.73 35.79 79.82 35.59 79.89 35.39C79.97 35.19 80.03 34.98 80.08 34.77C80.12 34.56 80.16 34.34 80.18 34.13L81.12 34.14Z" />
	<path id="Layer" fill-rule="evenodd" class="shp0" d="M111.26 37.72C111.35 37.74 111.44 37.76 111.53 37.77C111.62 37.78 111.71 37.79 111.8 37.79C111.89 37.79 111.98 37.78 112.07 37.77L112.07 38.77L105.34 38.77L105.34 37.77C105.44 37.77 105.55 37.77 105.65 37.77C105.76 37.77 105.86 37.76 105.96 37.75C106.07 37.74 106.17 37.73 106.27 37.71C106.38 37.69 106.48 37.67 106.58 37.65C106.64 37.63 106.7 37.61 106.75 37.57C106.8 37.53 106.84 37.49 106.88 37.44C106.91 37.38 106.94 37.33 106.96 37.27C106.97 37.21 106.98 37.14 106.97 37.08C106.97 37.03 106.97 36.97 106.96 36.92C106.95 36.86 106.95 36.81 106.93 36.75C106.92 36.7 106.91 36.65 106.89 36.59C106.88 36.54 106.86 36.49 106.84 36.44L106.17 34.75L101.54 34.75L101.19 35.68C101.15 35.77 101.11 35.86 101.08 35.95C101.05 36.04 101.02 36.14 101 36.23C100.97 36.33 100.95 36.42 100.93 36.52C100.91 36.62 100.9 36.71 100.89 36.81C100.88 36.89 100.88 36.98 100.9 37.06C100.92 37.14 100.95 37.22 100.99 37.3C101.04 37.37 101.09 37.43 101.16 37.49C101.23 37.54 101.3 37.58 101.38 37.61C101.47 37.64 101.56 37.67 101.66 37.69C101.75 37.71 101.85 37.73 101.94 37.74C102.04 37.76 102.13 37.77 102.23 37.77C102.33 37.78 102.42 37.78 102.52 37.78L102.52 38.78L90.45 38.78L90.45 37.78L91.11 37.78C91.19 37.78 91.28 37.78 91.36 37.77C91.45 37.77 91.53 37.76 91.62 37.75C91.7 37.74 91.78 37.72 91.86 37.7C91.95 37.69 92.03 37.66 92.11 37.64C92.18 37.62 92.24 37.59 92.3 37.55C92.36 37.51 92.41 37.46 92.45 37.4C92.49 37.34 92.52 37.28 92.53 37.21C92.55 37.14 92.56 37.07 92.55 37C92.52 36.91 92.49 36.82 92.45 36.73C92.42 36.64 92.38 36.55 92.33 36.47C92.28 36.38 92.23 36.3 92.17 36.22C92.12 36.15 92.06 36.07 91.99 36L89.68 33L87.47 35.7C87.37 35.79 87.28 35.89 87.2 35.99C87.11 36.09 87.04 36.2 86.97 36.32C86.91 36.43 86.85 36.55 86.8 36.68C86.75 36.8 86.72 36.93 86.69 37.06C86.69 37.12 86.69 37.17 86.7 37.22C86.71 37.28 86.73 37.33 86.75 37.38C86.77 37.43 86.8 37.48 86.83 37.52C86.87 37.57 86.91 37.61 86.95 37.64C87 37.67 87.04 37.7 87.09 37.73C87.14 37.76 87.2 37.78 87.25 37.8C87.3 37.82 87.36 37.84 87.41 37.85C87.47 37.87 87.52 37.87 87.58 37.88C87.66 37.89 87.75 37.89 87.83 37.89C87.91 37.89 88 37.9 88.08 37.9C88.16 37.9 88.25 37.89 88.33 37.89C88.41 37.89 88.5 37.89 88.58 37.88L88.58 38.88L82.3 38.88L82.3 37.88C82.4 37.88 82.51 37.87 82.61 37.86C82.71 37.86 82.82 37.84 82.92 37.83C83.02 37.81 83.12 37.79 83.22 37.76C83.32 37.74 83.42 37.71 83.52 37.68C83.63 37.64 83.74 37.59 83.85 37.54C83.95 37.48 84.06 37.43 84.16 37.36C84.26 37.3 84.35 37.23 84.45 37.16C84.54 37.09 84.63 37.01 84.72 36.93C84.88 36.79 85.03 36.64 85.18 36.49C85.33 36.35 85.48 36.2 85.62 36.04C85.77 35.89 85.91 35.74 86.05 35.58C86.19 35.42 86.33 35.26 86.46 35.1L89 32.1L85.56 27.57C85.04 26.89 84.66 26.43 84.43 26.19C84.37 26.13 84.32 26.08 84.25 26.02C84.19 25.97 84.12 25.92 84.06 25.88C83.99 25.84 83.92 25.8 83.84 25.76C83.77 25.73 83.7 25.7 83.62 25.67C83.51 25.64 83.41 25.61 83.3 25.59C83.19 25.57 83.08 25.55 82.97 25.54C82.86 25.52 82.75 25.52 82.64 25.51C82.53 25.51 82.42 25.51 82.31 25.51L82.31 24.51L90.11 24.51L90.11 25.51L89.56 25.51C89.48 25.51 89.41 25.51 89.33 25.51C89.26 25.51 89.18 25.52 89.11 25.53C89.03 25.53 88.96 25.54 88.88 25.56C88.81 25.57 88.73 25.58 88.66 25.6C88.61 25.62 88.57 25.64 88.52 25.67C88.48 25.7 88.45 25.74 88.42 25.79C88.4 25.83 88.38 25.88 88.37 25.93C88.35 25.98 88.35 26.03 88.36 26.08C88.39 26.18 88.43 26.29 88.48 26.39C88.52 26.49 88.57 26.59 88.62 26.68C88.68 26.78 88.74 26.87 88.8 26.96C88.86 27.05 88.93 27.14 89 27.22L91 29.79L93.26 27.16C93.46 26.9 93.6 26.71 93.66 26.6C93.68 26.57 93.69 26.54 93.7 26.5C93.71 26.47 93.72 26.44 93.73 26.4C93.74 26.37 93.74 26.33 93.75 26.3C93.75 26.26 93.75 26.23 93.75 26.19C93.75 26.14 93.75 26.09 93.74 26.04C93.73 25.99 93.71 25.95 93.69 25.9C93.67 25.86 93.64 25.82 93.61 25.78C93.57 25.75 93.53 25.72 93.49 25.69C93.41 25.66 93.33 25.63 93.25 25.61C93.17 25.59 93.08 25.57 93 25.56C92.91 25.54 92.83 25.54 92.74 25.53C92.66 25.53 92.57 25.53 92.49 25.54L92 25.54L92 24.54L97.89 24.54L97.89 25.54C97.77 25.54 97.65 25.54 97.53 25.55C97.42 25.56 97.3 25.57 97.18 25.59C97.06 25.62 96.95 25.64 96.83 25.68C96.72 25.71 96.61 25.75 96.5 25.8C96.41 25.84 96.32 25.89 96.23 25.94C96.14 25.99 96.05 26.04 95.97 26.1C95.89 26.15 95.81 26.21 95.73 26.28C95.65 26.34 95.57 26.41 95.5 26.48C95.23 26.76 94.79 27.22 94.23 27.86L91.68 30.79L95.16 35.34C95.26 35.48 95.36 35.61 95.46 35.74C95.57 35.88 95.67 36.01 95.78 36.14C95.89 36.27 95.99 36.4 96.1 36.52C96.21 36.65 96.33 36.78 96.44 36.9C96.51 36.98 96.58 37.05 96.66 37.12C96.74 37.2 96.82 37.26 96.9 37.33C96.99 37.39 97.07 37.45 97.16 37.5C97.25 37.56 97.35 37.61 97.44 37.65C97.5 37.67 97.56 37.69 97.62 37.71C97.68 37.73 97.74 37.75 97.8 37.76C97.87 37.78 97.93 37.79 97.99 37.8C98.05 37.81 98.12 37.82 98.18 37.83C98.22 37.82 98.26 37.81 98.3 37.8C98.33 37.79 98.37 37.78 98.41 37.77C98.45 37.75 98.49 37.74 98.52 37.72C98.56 37.71 98.59 37.69 98.63 37.67C98.71 37.62 98.79 37.56 98.87 37.5C98.94 37.44 99.01 37.37 99.08 37.3C99.15 37.23 99.21 37.15 99.26 37.08C99.32 37 99.37 36.92 99.42 36.83C99.5 36.69 99.57 36.55 99.65 36.41C99.72 36.26 99.79 36.12 99.86 35.97C99.92 35.83 99.99 35.68 100.05 35.53C100.11 35.38 100.17 35.23 100.22 35.08L104.34 24.29L105.34 24.29L109.7 35.41C110.01 36.19 110.24 36.72 110.39 37C110.42 37.07 110.46 37.13 110.51 37.19C110.55 37.25 110.6 37.31 110.65 37.36C110.7 37.42 110.76 37.47 110.82 37.51C110.87 37.56 110.94 37.6 111 37.64C111.08 37.67 111.17 37.7 111.26 37.72ZM105.88 33.8L103.88 28.8L102 33.8L105.88 33.8Z" />
	<path id="Layer" class="shp0" d="M122.87 34.58C122.87 34.7 122.86 34.81 122.85 34.93C122.84 35.05 122.82 35.16 122.79 35.28C122.77 35.39 122.74 35.51 122.71 35.62C122.67 35.73 122.63 35.84 122.59 35.95C122.54 36.08 122.49 36.2 122.43 36.32C122.37 36.45 122.3 36.56 122.23 36.68C122.16 36.8 122.08 36.91 122 37.02C121.92 37.13 121.84 37.24 121.75 37.34C121.65 37.45 121.55 37.56 121.44 37.66C121.33 37.77 121.22 37.86 121.1 37.96C120.98 38.05 120.85 38.13 120.73 38.21C120.6 38.29 120.47 38.36 120.33 38.42C120.17 38.49 120.01 38.56 119.85 38.61C119.69 38.67 119.52 38.71 119.35 38.75C119.19 38.78 119.02 38.81 118.84 38.82C118.67 38.84 118.5 38.84 118.33 38.84C118.14 38.84 117.95 38.83 117.76 38.81C117.57 38.79 117.39 38.76 117.2 38.72C117.01 38.68 116.83 38.63 116.65 38.57C116.47 38.51 116.29 38.44 116.12 38.36C115.94 38.28 115.76 38.19 115.59 38.09C115.42 37.99 115.26 37.88 115.1 37.75C114.95 37.63 114.8 37.5 114.66 37.36C114.51 37.22 114.38 37.08 114.26 36.92C114.21 37.03 114.16 37.15 114.12 37.26C114.08 37.38 114.04 37.49 114 37.61C113.97 37.73 113.94 37.85 113.91 37.97C113.88 38.09 113.86 38.21 113.84 38.33L112.89 38.33L112.89 33.55L113.84 33.55C113.88 33.72 113.93 33.88 113.98 34.05C114.03 34.21 114.08 34.38 114.14 34.54C114.2 34.7 114.26 34.86 114.33 35.02C114.4 35.18 114.47 35.34 114.55 35.49C114.63 35.64 114.72 35.78 114.81 35.92C114.9 36.06 115.01 36.19 115.12 36.32C115.23 36.44 115.34 36.56 115.46 36.68C115.59 36.79 115.72 36.9 115.85 37C115.99 37.11 116.14 37.21 116.3 37.29C116.46 37.37 116.62 37.44 116.79 37.5C116.96 37.56 117.14 37.6 117.32 37.63C117.49 37.65 117.67 37.66 117.85 37.66C118 37.67 118.16 37.66 118.31 37.64C118.46 37.62 118.61 37.58 118.75 37.53C118.9 37.48 119.03 37.42 119.17 37.34C119.3 37.27 119.42 37.18 119.54 37.08C119.69 36.94 119.82 36.77 119.93 36.58C120.03 36.4 120.1 36.2 120.14 35.99C120.18 35.78 120.18 35.57 120.16 35.36C120.13 35.15 120.07 34.95 119.98 34.76C119.94 34.7 119.91 34.63 119.86 34.57C119.82 34.51 119.78 34.46 119.73 34.4C119.68 34.35 119.63 34.29 119.58 34.24C119.52 34.19 119.47 34.14 119.41 34.1C119.33 34.04 119.25 33.98 119.17 33.92C119.09 33.87 119.01 33.81 118.93 33.76C118.84 33.71 118.76 33.66 118.67 33.61C118.59 33.56 118.5 33.51 118.41 33.47C117.98 33.25 117.49 33.01 116.94 32.76C116.76 32.68 116.58 32.59 116.4 32.5C116.22 32.41 116.04 32.31 115.87 32.21C115.7 32.11 115.53 32.01 115.36 31.9C115.19 31.79 115.02 31.68 114.86 31.56C114.74 31.48 114.63 31.39 114.52 31.3C114.41 31.21 114.3 31.11 114.2 31.01C114.1 30.92 114 30.81 113.9 30.71C113.81 30.6 113.72 30.49 113.63 30.38C113.57 30.3 113.51 30.21 113.45 30.13C113.4 30.04 113.34 29.95 113.29 29.86C113.25 29.77 113.2 29.67 113.16 29.58C113.12 29.48 113.08 29.39 113.05 29.29C113.02 29.21 113 29.13 112.98 29.05C112.96 28.96 112.95 28.88 112.93 28.8C112.92 28.71 112.91 28.63 112.9 28.54C112.89 28.46 112.89 28.37 112.89 28.29C112.89 28.13 112.9 27.97 112.93 27.81C112.95 27.65 112.98 27.49 113.03 27.33C113.07 27.18 113.12 27.02 113.18 26.87C113.25 26.72 113.32 26.58 113.4 26.44C113.49 26.29 113.58 26.14 113.69 25.99C113.8 25.85 113.91 25.72 114.04 25.59C114.16 25.46 114.3 25.35 114.44 25.24C114.58 25.13 114.73 25.03 114.88 24.94C115.05 24.84 115.23 24.76 115.41 24.68C115.59 24.61 115.78 24.54 115.97 24.5C116.16 24.45 116.35 24.41 116.54 24.39C116.74 24.37 116.93 24.36 117.13 24.36C117.29 24.36 117.45 24.37 117.61 24.39C117.77 24.4 117.93 24.43 118.09 24.47C118.25 24.51 118.4 24.55 118.56 24.61C118.71 24.66 118.86 24.73 119 24.8C119.15 24.87 119.29 24.95 119.43 25.04C119.57 25.12 119.71 25.22 119.84 25.32C119.97 25.42 120.09 25.53 120.21 25.64C120.33 25.75 120.44 25.87 120.55 26C120.59 25.9 120.62 25.8 120.66 25.7C120.69 25.6 120.72 25.5 120.75 25.4C120.78 25.3 120.8 25.19 120.83 25.09C120.85 24.99 120.87 24.88 120.89 24.78L121.89 24.78L121.89 28.68L120.89 28.68C120.22 26.56 119.03 25.5 117.3 25.5C117.17 25.49 117.03 25.5 116.9 25.52C116.77 25.54 116.64 25.57 116.51 25.61C116.38 25.65 116.26 25.7 116.14 25.77C116.02 25.83 115.91 25.91 115.81 25.99C115.72 26.07 115.64 26.15 115.57 26.25C115.49 26.34 115.43 26.45 115.39 26.56C115.34 26.66 115.3 26.78 115.28 26.9C115.26 27.01 115.25 27.13 115.25 27.25C115.25 27.34 115.25 27.44 115.27 27.53C115.28 27.62 115.31 27.72 115.34 27.8C115.37 27.89 115.4 27.98 115.45 28.06C115.49 28.15 115.54 28.23 115.6 28.3C115.66 28.38 115.73 28.45 115.8 28.52C115.87 28.59 115.94 28.66 116.02 28.73C116.1 28.79 116.18 28.85 116.26 28.91C116.35 28.96 116.43 29.01 116.52 29.06C116.9 29.27 117.52 29.58 118.37 29.98C118.58 30.08 118.78 30.17 118.99 30.27C119.19 30.38 119.39 30.48 119.6 30.58C119.8 30.69 120 30.8 120.2 30.91C120.4 31.02 120.59 31.13 120.79 31.25C120.93 31.34 121.07 31.43 121.2 31.54C121.34 31.64 121.47 31.75 121.59 31.86C121.71 31.97 121.83 32.09 121.94 32.22C122.05 32.34 122.16 32.47 122.26 32.61C122.36 32.75 122.45 32.9 122.53 33.06C122.61 33.22 122.67 33.38 122.73 33.55C122.78 33.71 122.82 33.88 122.84 34.06C122.86 34.23 122.87 34.41 122.87 34.58L122.87 34.58Z" />
	<path id="Layer" fill-rule="evenodd" class="shp0" d="M144.69 38.84L138 38.84L138 37.84C138.1 37.84 138.21 37.84 138.31 37.84C138.42 37.84 138.52 37.83 138.62 37.82C138.73 37.81 138.83 37.8 138.93 37.78C139.04 37.76 139.14 37.74 139.24 37.72C139.3 37.7 139.36 37.68 139.41 37.64C139.46 37.6 139.5 37.56 139.54 37.51C139.57 37.45 139.6 37.4 139.62 37.34C139.63 37.28 139.64 37.21 139.63 37.15C139.63 37.1 139.63 37.04 139.62 36.99C139.61 36.93 139.61 36.88 139.59 36.82C139.58 36.77 139.57 36.72 139.55 36.66C139.54 36.61 139.52 36.56 139.5 36.51L138.82 34.82L134.19 34.82L133.84 35.75C133.8 35.84 133.77 35.93 133.73 36.02C133.7 36.12 133.67 36.21 133.65 36.3C133.63 36.4 133.61 36.49 133.59 36.59C133.57 36.69 133.56 36.78 133.55 36.88C133.54 36.96 133.54 37.05 133.56 37.13C133.58 37.21 133.61 37.29 133.65 37.37C133.7 37.44 133.75 37.5 133.82 37.56C133.89 37.61 133.96 37.65 134.04 37.68C134.13 37.71 134.22 37.74 134.32 37.76C134.41 37.78 134.51 37.8 134.6 37.81C134.7 37.83 134.79 37.84 134.89 37.84C134.99 37.85 135.08 37.85 135.18 37.85L135.18 38.85L130.26 38.85L130.26 37.85C130.35 37.85 130.43 37.85 130.52 37.84C130.6 37.83 130.69 37.82 130.77 37.8C130.86 37.78 130.94 37.76 131.02 37.73C131.1 37.7 131.18 37.67 131.26 37.63C131.34 37.58 131.42 37.52 131.5 37.46C131.57 37.4 131.64 37.33 131.71 37.26C131.78 37.19 131.84 37.11 131.89 37.04C131.95 36.96 132 36.88 132.05 36.79C132.13 36.65 132.2 36.51 132.28 36.37C132.35 36.22 132.42 36.08 132.49 35.93C132.55 35.79 132.62 35.64 132.68 35.49C132.74 35.34 132.8 35.19 132.85 35.04L136.97 24.25L137.97 24.25L142.32 35.37C142.64 36.15 142.87 36.69 143.01 36.96C143.04 37.03 143.08 37.09 143.13 37.15C143.17 37.21 143.22 37.27 143.27 37.32C143.32 37.38 143.38 37.43 143.44 37.47C143.49 37.52 143.56 37.56 143.62 37.6C143.7 37.64 143.79 37.68 143.88 37.71C143.97 37.74 144.06 37.77 144.16 37.79C144.25 37.81 144.34 37.82 144.44 37.83C144.53 37.83 144.63 37.83 144.72 37.83L144.69 38.84ZM138.41 33.84L136.41 28.84L134.54 33.84L138.41 33.84Z" />
	<path id="Layer" class="shp0" d="M175.83 38.84L168.67 38.84L168.67 37.84C168.78 37.85 168.9 37.85 169.01 37.84C169.13 37.84 169.24 37.83 169.36 37.81C169.47 37.8 169.59 37.78 169.7 37.75C169.81 37.73 169.92 37.7 170.03 37.66C170.09 37.64 170.15 37.61 170.21 37.57C170.26 37.53 170.32 37.49 170.36 37.45C170.41 37.4 170.46 37.35 170.49 37.29C170.53 37.24 170.56 37.18 170.59 37.12C170.62 37.04 170.64 36.96 170.66 36.88C170.68 36.79 170.69 36.71 170.7 36.63C170.71 36.54 170.72 36.46 170.72 36.37C170.73 36.29 170.72 36.2 170.72 36.12L170.72 27.12L165.33 38.73L164.69 38.73L159.23 27.12L159.23 35.63C159.22 35.71 159.22 35.8 159.22 35.88C159.22 35.96 159.21 36.05 159.21 36.13C159.21 36.21 159.22 36.3 159.22 36.38C159.22 36.46 159.22 36.55 159.23 36.63C159.24 36.68 159.25 36.74 159.26 36.79C159.27 36.85 159.29 36.9 159.31 36.95C159.33 37 159.35 37.05 159.38 37.1C159.41 37.15 159.44 37.2 159.47 37.24C159.51 37.29 159.55 37.33 159.6 37.37C159.65 37.41 159.7 37.44 159.75 37.47C159.8 37.51 159.86 37.53 159.91 37.56C159.97 37.58 160.03 37.6 160.09 37.61C160.19 37.63 160.28 37.65 160.38 37.67C160.48 37.68 160.57 37.7 160.67 37.71C160.77 37.72 160.87 37.72 160.97 37.73C161.06 37.73 161.16 37.73 161.26 37.73L161.26 38.73L156 38.73L156 37.73C156.1 37.73 156.2 37.73 156.3 37.73C156.39 37.72 156.49 37.72 156.59 37.71C156.69 37.7 156.78 37.68 156.88 37.66C156.98 37.65 157.07 37.62 157.17 37.6C157.23 37.59 157.29 37.57 157.34 37.54C157.4 37.52 157.45 37.49 157.51 37.46C157.56 37.43 157.61 37.39 157.65 37.35C157.7 37.31 157.74 37.27 157.78 37.22C157.81 37.18 157.84 37.13 157.87 37.08C157.89 37.03 157.92 36.98 157.94 36.93C157.96 36.88 157.97 36.83 157.98 36.77C158 36.72 158.01 36.66 158.01 36.61C158.01 36.53 158.02 36.44 158.02 36.36C158.02 36.28 158.02 36.19 158.02 36.11C158.02 36.03 158.02 35.94 158.02 35.86C158.02 35.78 158.01 35.69 158.01 35.61L158.01 27.63C158.01 27.52 158.01 27.41 158.01 27.3C158.01 27.19 158 27.09 157.99 26.98C157.98 26.87 157.97 26.76 157.96 26.65C157.95 26.54 157.93 26.44 157.91 26.33C157.89 26.26 157.87 26.2 157.84 26.14C157.81 26.07 157.77 26.02 157.72 25.96C157.68 25.91 157.63 25.86 157.57 25.82C157.51 25.78 157.45 25.75 157.39 25.72C157.28 25.68 157.16 25.64 157.04 25.61C156.92 25.58 156.8 25.56 156.68 25.54C156.56 25.52 156.44 25.51 156.32 25.51C156.19 25.5 156.07 25.5 155.95 25.51L155.95 24.51L161.16 24.51L166 34.63L170.75 24.55L175.86 24.55L175.86 25.55C175.71 25.53 175.56 25.53 175.42 25.53C175.27 25.54 175.12 25.56 174.98 25.59C174.83 25.62 174.69 25.67 174.55 25.73C174.42 25.78 174.29 25.85 174.16 25.93C174.09 26.02 174.03 26.12 173.97 26.22C173.92 26.32 173.88 26.43 173.84 26.54C173.81 26.65 173.79 26.77 173.78 26.88C173.77 27 173.77 27.11 173.78 27.23L173.78 36.23C173.78 36.31 173.78 36.39 173.78 36.47C173.79 36.55 173.8 36.63 173.81 36.71C173.82 36.78 173.83 36.86 173.85 36.94C173.87 37.02 173.89 37.09 173.91 37.17C173.94 37.23 173.97 37.29 174.01 37.35C174.05 37.41 174.09 37.46 174.14 37.51C174.19 37.55 174.25 37.59 174.31 37.63C174.36 37.67 174.43 37.7 174.49 37.72C174.6 37.76 174.71 37.79 174.82 37.82C174.94 37.84 175.05 37.86 175.17 37.88C175.28 37.9 175.4 37.91 175.51 37.91C175.63 37.92 175.74 37.92 175.86 37.91L175.83 38.84Z" />
	<path id="Layer" class="shp0" d="M61.4 43.78C61.35 43.78 61.3 43.78 61.25 43.78C61.21 43.78 61.16 43.78 61.11 43.79C61.06 43.8 61.01 43.81 60.97 43.82C60.92 43.84 60.87 43.85 60.83 43.87C60.8 43.88 60.78 43.9 60.76 43.92C60.73 43.93 60.71 43.95 60.7 43.98C60.68 44 60.66 44.02 60.65 44.05C60.64 44.07 60.63 44.1 60.62 44.13C60.62 44.17 60.61 44.22 60.61 44.26C60.61 44.3 60.61 44.35 60.61 44.39C60.61 44.43 60.61 44.48 60.61 44.52C60.61 44.56 60.62 44.61 60.62 44.65L60.62 46.82C60.62 46.89 60.63 46.97 60.63 47.04C60.63 47.12 60.63 47.19 60.63 47.27C60.63 47.35 60.63 47.42 60.63 47.5C60.63 47.57 60.62 47.65 60.62 47.72C60.61 47.77 60.6 47.83 60.59 47.88C60.57 47.93 60.56 47.98 60.54 48.04C60.52 48.09 60.5 48.14 60.48 48.19C60.45 48.24 60.43 48.28 60.4 48.33C60.35 48.42 60.29 48.51 60.23 48.59C60.17 48.68 60.09 48.75 60.02 48.82C59.94 48.89 59.85 48.96 59.76 49.01C59.67 49.07 59.58 49.11 59.48 49.15C59.39 49.19 59.3 49.22 59.2 49.24C59.11 49.27 59.02 49.29 58.92 49.31C58.82 49.33 58.73 49.34 58.63 49.35C58.53 49.36 58.44 49.37 58.34 49.37C58.27 49.37 58.2 49.37 58.13 49.36C58.06 49.36 57.99 49.35 57.92 49.34C57.85 49.33 57.78 49.32 57.71 49.31C57.65 49.29 57.58 49.28 57.51 49.26C57.44 49.24 57.37 49.22 57.3 49.2C57.23 49.17 57.17 49.15 57.1 49.12C57.03 49.09 56.97 49.06 56.91 49.02C56.84 48.99 56.78 48.95 56.72 48.91C56.66 48.87 56.6 48.83 56.55 48.78C56.49 48.73 56.44 48.68 56.4 48.63C56.35 48.57 56.31 48.52 56.27 48.46C56.23 48.4 56.19 48.33 56.16 48.27C56.14 48.23 56.13 48.2 56.11 48.16C56.1 48.13 56.08 48.09 56.07 48.05C56.06 48.02 56.04 47.98 56.03 47.94C56.02 47.91 56.01 47.87 56 47.83C55.99 47.8 55.98 47.76 55.97 47.73C55.97 47.69 55.96 47.66 55.95 47.62C55.95 47.59 55.94 47.55 55.94 47.52C55.94 47.48 55.93 47.45 55.93 47.41C55.93 47.29 55.93 47.12 55.93 46.91L55.93 44.48C55.93 44.43 55.94 44.38 55.93 44.34C55.93 44.29 55.92 44.24 55.91 44.2C55.89 44.15 55.88 44.1 55.85 44.06C55.83 44.02 55.81 43.98 55.78 43.94C55.73 43.91 55.68 43.88 55.62 43.85C55.56 43.83 55.5 43.81 55.44 43.8C55.39 43.78 55.32 43.77 55.26 43.77C55.2 43.77 55.14 43.77 55.08 43.78L55.08 43.38L58.08 43.38L58.08 43.78C58.03 43.78 57.98 43.78 57.94 43.78C57.89 43.78 57.84 43.79 57.79 43.79C57.74 43.8 57.7 43.81 57.65 43.82C57.6 43.83 57.56 43.84 57.51 43.86C57.48 43.87 57.46 43.88 57.43 43.9C57.41 43.91 57.39 43.93 57.37 43.95C57.35 43.96 57.33 43.98 57.31 44.01C57.3 44.03 57.28 44.05 57.27 44.08C57.26 44.11 57.25 44.14 57.24 44.18C57.23 44.21 57.23 44.24 57.22 44.28C57.22 44.31 57.21 44.34 57.21 44.38C57.21 44.41 57.21 44.45 57.21 44.48L57.21 46.93C57.21 46.98 57.2 47.04 57.2 47.09C57.2 47.15 57.2 47.2 57.2 47.26C57.2 47.32 57.2 47.37 57.2 47.43C57.2 47.48 57.21 47.54 57.21 47.59C57.22 47.63 57.22 47.68 57.23 47.72C57.24 47.76 57.25 47.8 57.26 47.84C57.27 47.89 57.28 47.93 57.29 47.97C57.3 48.01 57.32 48.05 57.33 48.09C57.36 48.15 57.38 48.2 57.42 48.26C57.45 48.31 57.49 48.36 57.53 48.41C57.58 48.46 57.62 48.5 57.67 48.54C57.72 48.58 57.77 48.62 57.83 48.65C57.89 48.68 57.95 48.71 58.01 48.74C58.08 48.77 58.14 48.79 58.21 48.81C58.27 48.82 58.34 48.84 58.41 48.85C58.47 48.86 58.54 48.86 58.61 48.86C58.68 48.86 58.76 48.86 58.83 48.85C58.9 48.84 58.98 48.82 59.05 48.81C59.12 48.79 59.19 48.76 59.26 48.74C59.33 48.71 59.4 48.68 59.46 48.64C59.52 48.61 59.58 48.57 59.63 48.53C59.69 48.49 59.74 48.44 59.78 48.4C59.83 48.35 59.87 48.29 59.91 48.24C59.95 48.18 59.98 48.12 60.01 48.06C60.03 48.01 60.05 47.97 60.07 47.92C60.08 47.87 60.1 47.82 60.11 47.78C60.12 47.73 60.14 47.68 60.15 47.63C60.16 47.58 60.16 47.53 60.17 47.48C60.17 47.42 60.18 47.36 60.18 47.3C60.18 47.24 60.18 47.18 60.18 47.12C60.18 47.07 60.18 47.01 60.18 46.95C60.18 46.89 60.17 46.83 60.17 46.77L60.17 44.66C60.17 44.63 60.17 44.59 60.17 44.56C60.18 44.52 60.18 44.49 60.18 44.45C60.18 44.41 60.18 44.38 60.17 44.34C60.17 44.31 60.17 44.27 60.17 44.24C60.16 44.22 60.15 44.19 60.14 44.17C60.13 44.15 60.12 44.13 60.1 44.11C60.09 44.09 60.07 44.07 60.05 44.05C60.04 44.03 60.02 44.02 60 44C59.98 43.98 59.97 43.96 59.95 43.94C59.93 43.93 59.91 43.91 59.88 43.9C59.86 43.88 59.84 43.87 59.81 43.86C59.79 43.85 59.77 43.85 59.74 43.84C59.7 43.83 59.66 43.83 59.62 43.83C59.57 43.83 59.53 43.82 59.49 43.82C59.45 43.82 59.41 43.83 59.36 43.83C59.32 43.83 59.28 43.83 59.24 43.84L59.24 43.44L61.4 43.44L61.4 43.78Z" />
	<path id="Layer" class="shp0" d="M75.29 43.78C75.24 43.78 75.19 43.78 75.14 43.78C75.09 43.78 75.04 43.79 74.99 43.79C74.94 43.8 74.89 43.81 74.84 43.82C74.79 43.84 74.74 43.85 74.69 43.87C74.66 43.88 74.64 43.89 74.61 43.91C74.59 43.93 74.57 43.95 74.55 43.97C74.53 43.99 74.51 44.01 74.49 44.04C74.48 44.06 74.47 44.09 74.46 44.12C74.45 44.16 74.45 44.21 74.45 44.25C74.45 44.3 74.44 44.34 74.44 44.39C74.44 44.44 74.45 44.48 74.45 44.53C74.45 44.57 74.45 44.62 74.46 44.66L74.46 49.33L74 49.33L70.14 44.75L70.14 48C70.13 48.04 70.13 48.09 70.13 48.13C70.13 48.18 70.12 48.22 70.12 48.27C70.12 48.32 70.13 48.36 70.13 48.41C70.13 48.45 70.13 48.5 70.14 48.54C70.15 48.57 70.16 48.6 70.17 48.62C70.19 48.65 70.2 48.67 70.22 48.7C70.24 48.72 70.27 48.74 70.29 48.76C70.32 48.77 70.34 48.79 70.37 48.8C70.42 48.82 70.47 48.83 70.52 48.85C70.57 48.86 70.62 48.87 70.67 48.88C70.72 48.88 70.77 48.89 70.82 48.89C70.88 48.89 70.93 48.89 70.98 48.89L70.98 49.29L68.85 49.29L68.85 48.89C68.9 48.89 68.95 48.89 69 48.89C69.04 48.89 69.09 48.88 69.14 48.88C69.19 48.87 69.24 48.86 69.28 48.85C69.33 48.83 69.37 48.82 69.42 48.8C69.45 48.79 69.47 48.77 69.5 48.76C69.52 48.74 69.54 48.72 69.56 48.7C69.58 48.67 69.6 48.65 69.61 48.62C69.62 48.6 69.63 48.57 69.64 48.54C69.64 48.5 69.65 48.45 69.65 48.41C69.65 48.36 69.65 48.32 69.65 48.27C69.65 48.22 69.65 48.18 69.65 48.13C69.65 48.09 69.64 48.04 69.64 48L69.64 45C69.64 44.76 69.64 44.57 69.64 44.45C69.64 44.42 69.63 44.39 69.63 44.37C69.62 44.34 69.62 44.31 69.61 44.29C69.6 44.26 69.59 44.23 69.58 44.21C69.57 44.18 69.56 44.15 69.55 44.13C69.54 44.11 69.52 44.08 69.5 44.06C69.49 44.04 69.47 44.02 69.45 44C69.43 43.98 69.41 43.97 69.38 43.95C69.36 43.93 69.34 43.92 69.31 43.91C69.27 43.89 69.24 43.88 69.2 43.86C69.16 43.85 69.12 43.84 69.09 43.83C69.05 43.82 69.01 43.81 68.97 43.8C68.93 43.8 68.89 43.79 68.85 43.79L68.85 43.39L70.57 43.39L73.93 47.39L73.93 44.66C73.93 44.62 73.94 44.58 73.94 44.54C73.94 44.49 73.94 44.45 73.94 44.41C73.94 44.37 73.94 44.33 73.94 44.28C73.94 44.24 73.93 44.2 73.93 44.16C73.92 44.13 73.91 44.1 73.9 44.08C73.88 44.05 73.86 44.02 73.84 44C73.82 43.98 73.8 43.96 73.78 43.94C73.75 43.92 73.73 43.9 73.7 43.89C73.66 43.87 73.61 43.85 73.56 43.84C73.52 43.83 73.47 43.82 73.42 43.81C73.37 43.8 73.32 43.79 73.28 43.79C73.23 43.79 73.18 43.79 73.13 43.79L73.13 43.39L75.33 43.39L75.29 43.78Z" />
	<path id="Layer" class="shp0" d="M85.71 49.27L82.71 49.27L82.71 48.87C82.76 48.87 82.8 48.87 82.85 48.87C82.9 48.87 82.95 48.86 82.99 48.85C83.04 48.85 83.09 48.84 83.13 48.83C83.18 48.82 83.22 48.8 83.27 48.79C83.3 48.78 83.32 48.77 83.35 48.76C83.37 48.75 83.4 48.73 83.42 48.71C83.44 48.69 83.46 48.67 83.48 48.65C83.49 48.63 83.51 48.61 83.52 48.58C83.53 48.55 83.54 48.51 83.55 48.48C83.56 48.45 83.56 48.41 83.57 48.38C83.57 48.34 83.58 48.31 83.58 48.27C83.58 48.24 83.58 48.2 83.58 48.17L83.58 44.47C83.58 44.42 83.59 44.37 83.58 44.33C83.58 44.28 83.57 44.23 83.55 44.18C83.54 44.14 83.52 44.09 83.5 44.05C83.48 44.01 83.45 43.97 83.42 43.93C83.37 43.9 83.31 43.87 83.26 43.84C83.2 43.82 83.14 43.8 83.08 43.79C83.02 43.77 82.96 43.77 82.9 43.76C82.83 43.76 82.77 43.76 82.71 43.77L82.71 43.37L85.71 43.37L85.71 43.77C85.66 43.77 85.61 43.77 85.57 43.77C85.52 43.77 85.47 43.77 85.42 43.78C85.37 43.79 85.33 43.79 85.28 43.8C85.23 43.81 85.19 43.83 85.14 43.84C85.11 43.85 85.09 43.86 85.06 43.87C85.04 43.89 85.01 43.9 84.99 43.92C84.97 43.94 84.95 43.96 84.93 43.98C84.92 44 84.9 44.02 84.89 44.05C84.88 44.08 84.87 44.12 84.86 44.15C84.85 44.18 84.85 44.22 84.84 44.25C84.84 44.29 84.83 44.32 84.83 44.36C84.83 44.39 84.83 44.43 84.83 44.46L84.83 48.16C84.83 48.19 84.83 48.23 84.83 48.26C84.83 48.3 84.84 48.33 84.84 48.36C84.85 48.4 84.85 48.43 84.86 48.46C84.87 48.5 84.88 48.53 84.89 48.56C84.9 48.59 84.91 48.61 84.93 48.63C84.95 48.66 84.97 48.68 84.99 48.7C85.01 48.71 85.03 48.73 85.05 48.75C85.08 48.76 85.1 48.77 85.13 48.78C85.18 48.8 85.22 48.81 85.27 48.82C85.32 48.83 85.37 48.84 85.42 48.85C85.46 48.86 85.51 48.86 85.56 48.86C85.61 48.86 85.66 48.86 85.71 48.86L85.71 49.27Z" />
	<path id="Layer" class="shp0" d="M99.64 43.78C99.61 43.78 99.58 43.78 99.55 43.78C99.52 43.79 99.49 43.79 99.46 43.8C99.43 43.8 99.4 43.81 99.37 43.82C99.34 43.82 99.31 43.83 99.28 43.84C99.25 43.85 99.23 43.85 99.2 43.87C99.18 43.88 99.15 43.89 99.13 43.9C99.11 43.91 99.08 43.93 99.06 43.95C99.04 43.96 99.02 43.98 99 44C98.98 44.02 98.96 44.05 98.94 44.07C98.93 44.09 98.91 44.12 98.89 44.14C98.87 44.17 98.86 44.19 98.84 44.22C98.83 44.25 98.81 44.27 98.8 44.3C98.73 44.43 98.64 44.63 98.52 44.9L96.6 49.38L96.2 49.38L94.2 44.68C94.18 44.63 94.16 44.58 94.13 44.52C94.11 44.47 94.09 44.42 94.06 44.37C94.04 44.32 94.02 44.27 93.99 44.22C93.96 44.17 93.94 44.12 93.91 44.07C93.89 44.04 93.88 44.02 93.86 44C93.84 43.97 93.81 43.95 93.79 43.93C93.77 43.91 93.74 43.89 93.71 43.88C93.69 43.86 93.66 43.85 93.63 43.84C93.59 43.83 93.55 43.81 93.5 43.81C93.46 43.8 93.42 43.79 93.37 43.78C93.33 43.78 93.29 43.77 93.24 43.77C93.2 43.77 93.15 43.77 93.11 43.77L93.11 43.37L96.11 43.37L96.11 43.77C96.06 43.77 96.01 43.77 95.96 43.78C95.91 43.78 95.86 43.78 95.81 43.79C95.76 43.8 95.71 43.8 95.67 43.81C95.62 43.82 95.57 43.83 95.52 43.84C95.49 43.85 95.47 43.86 95.45 43.88C95.43 43.9 95.41 43.92 95.39 43.94C95.38 43.96 95.37 43.99 95.36 44.02C95.36 44.04 95.36 44.07 95.36 44.1C95.36 44.14 95.36 44.17 95.37 44.21C95.38 44.24 95.38 44.28 95.39 44.32C95.4 44.35 95.41 44.39 95.43 44.42C95.44 44.45 95.45 44.49 95.47 44.52L96.82 47.67L98.07 44.73C98.09 44.69 98.11 44.65 98.13 44.6C98.14 44.56 98.16 44.52 98.17 44.47C98.19 44.43 98.2 44.38 98.21 44.34C98.22 44.29 98.22 44.25 98.23 44.2C98.23 44.01 98.16 43.9 98.03 43.85C97.98 43.84 97.93 43.82 97.89 43.81C97.84 43.8 97.79 43.79 97.74 43.79C97.69 43.78 97.64 43.78 97.59 43.77C97.54 43.77 97.49 43.77 97.44 43.77L97.44 43.37L99.62 43.37L99.64 43.78Z" />
	<path id="Layer" class="shp0" d="M112.39 47.34L112.34 49.28L107.09 49.28L107.09 48.88C107.15 48.89 107.21 48.89 107.27 48.89C107.33 48.88 107.39 48.87 107.45 48.86C107.51 48.85 107.57 48.83 107.63 48.8C107.68 48.78 107.74 48.75 107.79 48.72C107.82 48.68 107.84 48.64 107.86 48.6C107.89 48.55 107.9 48.51 107.92 48.46C107.93 48.42 107.94 48.37 107.94 48.32C107.94 48.28 107.94 48.23 107.94 48.18L107.94 44.48C107.94 44.45 107.95 44.42 107.95 44.38C107.95 44.35 107.95 44.32 107.95 44.29C107.95 44.25 107.95 44.22 107.95 44.19C107.95 44.15 107.94 44.12 107.94 44.09C107.93 44.06 107.92 44.04 107.9 44.02C107.88 43.99 107.86 43.97 107.84 43.95C107.82 43.93 107.8 43.92 107.78 43.9C107.75 43.89 107.73 43.88 107.7 43.87C107.65 43.85 107.61 43.84 107.56 43.83C107.51 43.82 107.47 43.81 107.42 43.8C107.37 43.8 107.32 43.79 107.27 43.79C107.23 43.79 107.18 43.79 107.13 43.79L107.13 43.39L112 43.39L112.07 44.92L111.67 44.92C111.66 44.85 111.64 44.79 111.62 44.73C111.6 44.66 111.58 44.6 111.55 44.54C111.53 44.48 111.5 44.42 111.46 44.36C111.43 44.3 111.4 44.24 111.36 44.19C111.34 44.16 111.31 44.13 111.28 44.1C111.25 44.07 111.22 44.04 111.18 44.02C111.15 44 111.11 43.98 111.08 43.96C111.04 43.94 111 43.93 110.96 43.92C110.91 43.91 110.85 43.9 110.8 43.89C110.74 43.89 110.69 43.88 110.63 43.88C110.58 43.87 110.52 43.87 110.47 43.87C110.41 43.87 110.36 43.87 110.3 43.87L109.19 43.87L109.19 45.95L109.79 45.95C109.83 45.95 109.87 45.95 109.91 45.95C109.94 45.95 109.98 45.95 110.02 45.94C110.06 45.94 110.1 45.93 110.14 45.93C110.17 45.92 110.21 45.91 110.25 45.9C110.27 45.89 110.3 45.88 110.32 45.87C110.34 45.85 110.36 45.84 110.38 45.82C110.4 45.8 110.41 45.78 110.43 45.76C110.44 45.74 110.45 45.71 110.46 45.69C110.47 45.65 110.48 45.61 110.49 45.57C110.5 45.53 110.51 45.49 110.52 45.45C110.52 45.41 110.53 45.37 110.53 45.33C110.54 45.29 110.54 45.25 110.54 45.21L111 45.21L111 47.21L110.6 47.21C110.6 47.17 110.6 47.13 110.59 47.09C110.59 47.05 110.58 47.01 110.58 46.97C110.57 46.93 110.56 46.89 110.55 46.85C110.54 46.81 110.52 46.77 110.51 46.73C110.5 46.71 110.49 46.68 110.47 46.66C110.46 46.64 110.44 46.62 110.42 46.61C110.4 46.59 110.38 46.57 110.36 46.56C110.34 46.55 110.31 46.54 110.29 46.53C110.25 46.52 110.21 46.51 110.18 46.5C110.14 46.5 110.1 46.49 110.06 46.49C110.02 46.48 109.98 46.48 109.95 46.48C109.91 46.48 109.87 46.48 109.83 46.48L109.22 46.48L109.22 47.86C109.22 48.09 109.22 48.26 109.22 48.37C109.22 48.39 109.23 48.42 109.23 48.44C109.24 48.47 109.24 48.49 109.25 48.51C109.26 48.53 109.27 48.56 109.28 48.58C109.29 48.6 109.31 48.62 109.32 48.64C109.34 48.66 109.35 48.68 109.37 48.7C109.39 48.71 109.41 48.73 109.43 48.74C109.45 48.75 109.48 48.77 109.5 48.78C109.52 48.79 109.55 48.79 109.57 48.8C109.61 48.81 109.65 48.81 109.69 48.81C109.73 48.81 109.77 48.82 109.81 48.82C109.86 48.82 109.9 48.81 109.94 48.81C109.98 48.81 110.02 48.81 110.06 48.8L110.53 48.8C110.58 48.8 110.63 48.8 110.67 48.8C110.72 48.79 110.77 48.79 110.82 48.78C110.87 48.77 110.91 48.77 110.96 48.76C111.01 48.75 111.05 48.73 111.1 48.72C111.15 48.7 111.2 48.68 111.25 48.65C111.3 48.63 111.35 48.6 111.4 48.57C111.44 48.53 111.48 48.5 111.52 48.46C111.56 48.42 111.6 48.38 111.63 48.33C111.68 48.26 111.73 48.18 111.77 48.1C111.81 48.02 111.85 47.94 111.88 47.85C111.91 47.77 111.94 47.68 111.96 47.6C111.98 47.51 111.99 47.42 112 47.33L112.39 47.34Z" />
	<path id="Layer" fill-rule="evenodd" class="shp0" d="M126.42 49.27L124.85 49.27C124.83 49.25 124.81 49.23 124.79 49.2C124.77 49.18 124.75 49.16 124.73 49.13C124.72 49.11 124.7 49.09 124.68 49.06C124.66 49.04 124.65 49.01 124.63 48.99C124.54 48.87 124.45 48.73 124.35 48.56L124.1 48.15L123.7 47.49C123.67 47.44 123.64 47.38 123.61 47.33C123.57 47.28 123.54 47.23 123.51 47.18C123.47 47.13 123.44 47.08 123.4 47.03C123.36 46.98 123.33 46.93 123.29 46.88C123.27 46.86 123.25 46.83 123.23 46.81C123.2 46.79 123.18 46.77 123.15 46.75C123.13 46.73 123.1 46.72 123.07 46.7C123.04 46.69 123.01 46.68 122.98 46.67C122.93 46.66 122.88 46.66 122.83 46.66C122.78 46.65 122.73 46.65 122.68 46.65C122.63 46.65 122.58 46.65 122.53 46.66C122.48 46.66 122.43 46.66 122.38 46.67L122.16 46.67L122.16 48.21C122.16 48.24 122.16 48.28 122.16 48.31C122.16 48.34 122.16 48.37 122.17 48.41C122.17 48.44 122.18 48.47 122.18 48.5C122.19 48.54 122.2 48.57 122.21 48.6C122.22 48.63 122.23 48.65 122.25 48.67C122.27 48.7 122.28 48.72 122.31 48.74C122.33 48.76 122.35 48.77 122.37 48.79C122.4 48.8 122.42 48.81 122.45 48.82C122.49 48.84 122.54 48.85 122.59 48.86C122.63 48.87 122.68 48.88 122.73 48.89C122.77 48.89 122.82 48.9 122.87 48.9C122.92 48.9 122.96 48.9 123.01 48.9L123.01 49.3L120.01 49.3L120.01 48.9C120.07 48.91 120.13 48.91 120.19 48.91C120.25 48.91 120.32 48.9 120.37 48.88C120.43 48.87 120.49 48.85 120.55 48.83C120.61 48.8 120.66 48.77 120.71 48.74C120.74 48.7 120.76 48.66 120.79 48.62C120.81 48.58 120.82 48.53 120.84 48.48C120.85 48.44 120.86 48.39 120.86 48.34C120.87 48.3 120.87 48.25 120.86 48.2L120.86 44.47C120.86 44.42 120.86 44.37 120.86 44.33C120.86 44.28 120.85 44.23 120.84 44.19C120.82 44.14 120.81 44.1 120.78 44.05C120.76 44.01 120.74 43.97 120.71 43.93C120.66 43.9 120.61 43.87 120.55 43.84C120.49 43.82 120.43 43.8 120.37 43.79C120.32 43.77 120.25 43.76 120.19 43.76C120.13 43.76 120.07 43.76 120.01 43.77L120.01 43.36L122.55 43.36L123.37 43.41C123.42 43.41 123.47 43.42 123.52 43.43C123.57 43.43 123.62 43.44 123.67 43.45C123.72 43.46 123.77 43.47 123.82 43.48C123.87 43.49 123.92 43.5 123.97 43.51C124.02 43.52 124.08 43.54 124.13 43.56C124.19 43.58 124.24 43.6 124.29 43.62C124.34 43.64 124.39 43.67 124.44 43.69C124.49 43.72 124.54 43.75 124.59 43.78C124.64 43.81 124.69 43.85 124.73 43.88C124.78 43.92 124.82 43.96 124.86 44C124.9 44.05 124.94 44.09 124.97 44.14C125.01 44.18 125.04 44.23 125.07 44.28C125.1 44.33 125.13 44.39 125.15 44.45C125.17 44.51 125.19 44.57 125.21 44.63C125.22 44.69 125.23 44.75 125.24 44.81C125.25 44.87 125.25 44.94 125.25 45C125.25 45.05 125.25 45.1 125.24 45.15C125.24 45.2 125.23 45.24 125.22 45.29C125.21 45.34 125.2 45.39 125.18 45.43C125.17 45.48 125.15 45.53 125.13 45.57C125.11 45.62 125.08 45.67 125.05 45.71C125.02 45.76 124.99 45.8 124.96 45.85C124.92 45.89 124.89 45.93 124.85 45.97C124.81 46 124.76 46.04 124.72 46.07C124.66 46.11 124.61 46.15 124.55 46.18C124.49 46.22 124.42 46.25 124.36 46.28C124.3 46.3 124.23 46.33 124.17 46.35C124.1 46.37 124.04 46.39 123.97 46.41C124.02 46.44 124.07 46.47 124.12 46.51C124.17 46.54 124.22 46.58 124.26 46.62C124.31 46.65 124.35 46.69 124.39 46.74C124.43 46.78 124.47 46.82 124.51 46.87C124.65 47.05 124.89 47.39 125.21 47.87C125.24 47.92 125.28 47.98 125.31 48.03C125.35 48.09 125.39 48.14 125.42 48.19C125.46 48.24 125.5 48.3 125.54 48.35C125.58 48.4 125.62 48.45 125.66 48.5C125.68 48.53 125.71 48.56 125.73 48.58C125.76 48.61 125.78 48.64 125.81 48.66C125.84 48.69 125.87 48.71 125.9 48.73C125.93 48.75 125.96 48.77 125.99 48.79C126.02 48.8 126.05 48.82 126.08 48.83C126.11 48.84 126.14 48.85 126.18 48.86C126.21 48.86 126.24 48.87 126.27 48.88C126.3 48.88 126.34 48.89 126.37 48.89L126.42 49.27ZM124 45C124.01 44.91 124.01 44.82 123.99 44.73C123.98 44.64 123.95 44.56 123.91 44.48C123.88 44.39 123.83 44.32 123.77 44.25C123.71 44.18 123.64 44.12 123.57 44.07C123.48 44.03 123.39 43.99 123.3 43.96C123.21 43.93 123.12 43.91 123.02 43.89C122.93 43.87 122.83 43.85 122.74 43.85C122.64 43.84 122.55 43.84 122.45 43.84L122.17 43.84L122.17 46.21L122.45 46.21C122.54 46.21 122.64 46.21 122.73 46.2C122.83 46.2 122.92 46.18 123.01 46.17C123.1 46.15 123.2 46.13 123.29 46.1C123.38 46.07 123.46 46.04 123.55 46C123.83 45.81 124 45.47 124 45Z" />
	<path id="Layer" class="shp0" d="M138.26 47.58C138.26 47.63 138.26 47.68 138.25 47.73C138.24 47.78 138.24 47.83 138.23 47.88C138.22 47.92 138.2 47.97 138.19 48.02C138.17 48.07 138.16 48.11 138.14 48.16C138.12 48.21 138.1 48.27 138.07 48.32C138.05 48.37 138.02 48.42 137.99 48.47C137.96 48.52 137.93 48.57 137.9 48.61C137.86 48.66 137.83 48.71 137.79 48.75C137.75 48.8 137.7 48.84 137.66 48.89C137.61 48.93 137.56 48.97 137.51 49.01C137.46 49.04 137.41 49.08 137.36 49.11C137.3 49.14 137.25 49.17 137.19 49.2C137.13 49.23 137.06 49.26 136.99 49.28C136.92 49.3 136.85 49.32 136.79 49.34C136.72 49.35 136.64 49.36 136.57 49.37C136.5 49.38 136.43 49.38 136.36 49.38C136.28 49.38 136.2 49.37 136.12 49.36C136.04 49.35 135.96 49.34 135.88 49.32C135.81 49.31 135.73 49.28 135.65 49.26C135.58 49.23 135.5 49.2 135.43 49.17C135.35 49.14 135.28 49.1 135.21 49.05C135.14 49.01 135.07 48.96 135 48.91C134.94 48.86 134.87 48.81 134.82 48.75C134.76 48.69 134.7 48.63 134.65 48.56C134.63 48.61 134.61 48.66 134.59 48.71C134.57 48.75 134.56 48.8 134.54 48.85C134.53 48.9 134.51 48.95 134.5 49.01C134.49 49.06 134.48 49.11 134.47 49.16L134.07 49.16L134.07 47.16L134.47 47.16C134.49 47.23 134.51 47.3 134.53 47.37C134.55 47.44 134.57 47.51 134.6 47.58C134.62 47.65 134.65 47.71 134.68 47.78C134.71 47.85 134.74 47.91 134.77 47.98C134.8 48.04 134.84 48.11 134.88 48.17C134.91 48.23 134.96 48.29 135 48.34C135.05 48.4 135.1 48.45 135.15 48.5C135.2 48.55 135.25 48.6 135.31 48.64C135.37 48.69 135.43 48.73 135.5 48.76C135.57 48.8 135.64 48.83 135.71 48.85C135.78 48.88 135.86 48.89 135.93 48.91C136.01 48.92 136.08 48.92 136.16 48.92C136.22 48.92 136.29 48.92 136.35 48.91C136.42 48.9 136.48 48.89 136.54 48.87C136.6 48.85 136.66 48.82 136.71 48.79C136.77 48.76 136.82 48.72 136.87 48.68C136.94 48.62 136.99 48.55 137.04 48.47C137.08 48.39 137.11 48.3 137.13 48.21C137.15 48.12 137.15 48.03 137.14 47.94C137.13 47.85 137.1 47.76 137.06 47.68C137.05 47.65 137.03 47.63 137.01 47.6C136.99 47.58 136.97 47.55 136.95 47.53C136.93 47.5 136.91 47.48 136.89 47.46C136.87 47.44 136.84 47.42 136.82 47.4C136.79 47.37 136.75 47.35 136.72 47.33C136.68 47.3 136.65 47.28 136.61 47.26C136.57 47.23 136.54 47.21 136.5 47.19C136.46 47.17 136.43 47.15 136.39 47.13L135.77 46.84C135.69 46.81 135.62 46.77 135.54 46.73C135.46 46.69 135.39 46.65 135.32 46.61C135.24 46.56 135.17 46.52 135.1 46.47C135.03 46.43 134.96 46.38 134.89 46.33C134.84 46.3 134.79 46.26 134.75 46.22C134.7 46.18 134.65 46.14 134.61 46.1C134.57 46.06 134.53 46.01 134.49 45.97C134.45 45.92 134.41 45.88 134.37 45.83C134.34 45.79 134.32 45.76 134.3 45.72C134.27 45.69 134.25 45.65 134.23 45.61C134.21 45.57 134.19 45.53 134.18 45.49C134.16 45.45 134.14 45.41 134.13 45.37C134.12 45.33 134.11 45.3 134.1 45.26C134.09 45.23 134.08 45.19 134.08 45.15C134.07 45.12 134.07 45.08 134.07 45.04C134.06 45 134.06 44.97 134.06 44.93C134.06 44.86 134.07 44.79 134.07 44.73C134.08 44.66 134.1 44.59 134.11 44.53C134.13 44.46 134.15 44.4 134.18 44.33C134.21 44.27 134.24 44.21 134.27 44.15C134.31 44.08 134.35 44.02 134.4 43.96C134.44 43.9 134.49 43.85 134.54 43.79C134.6 43.74 134.65 43.69 134.71 43.65C134.77 43.6 134.83 43.56 134.9 43.52C134.97 43.48 135.05 43.44 135.12 43.41C135.2 43.38 135.28 43.36 135.36 43.33C135.44 43.31 135.52 43.3 135.6 43.29C135.68 43.28 135.77 43.28 135.85 43.28C135.92 43.28 135.99 43.28 136.05 43.29C136.12 43.3 136.19 43.31 136.26 43.32C136.32 43.34 136.39 43.36 136.45 43.38C136.52 43.4 136.58 43.43 136.64 43.46C136.7 43.49 136.76 43.52 136.82 43.56C136.88 43.6 136.94 43.63 136.99 43.68C137.05 43.72 137.1 43.76 137.15 43.81C137.2 43.86 137.25 43.91 137.29 43.96C137.31 43.92 137.32 43.88 137.33 43.84C137.35 43.79 137.36 43.75 137.37 43.71C137.39 43.67 137.4 43.62 137.41 43.58C137.41 43.54 137.42 43.49 137.43 43.45L137.84 43.45L137.84 45.1L137.43 45.1C137.14 44.2 136.64 43.75 135.92 43.75C135.86 43.75 135.81 43.75 135.75 43.76C135.69 43.77 135.64 43.78 135.59 43.8C135.53 43.81 135.48 43.84 135.43 43.86C135.38 43.89 135.33 43.92 135.29 43.96C135.25 43.99 135.22 44.03 135.19 44.07C135.16 44.11 135.13 44.15 135.11 44.2C135.09 44.24 135.07 44.29 135.06 44.34C135.05 44.39 135.05 44.44 135.05 44.49C135.05 44.53 135.05 44.57 135.06 44.61C135.06 44.65 135.07 44.69 135.09 44.73C135.1 44.77 135.11 44.8 135.13 44.84C135.15 44.87 135.18 44.91 135.2 44.94C135.23 44.97 135.26 45 135.29 45.03C135.32 45.06 135.35 45.09 135.38 45.12C135.41 45.15 135.45 45.17 135.48 45.19C135.52 45.22 135.55 45.24 135.59 45.26C135.75 45.35 136.01 45.48 136.37 45.65C136.46 45.69 136.54 45.73 136.63 45.77C136.71 45.82 136.79 45.86 136.88 45.91C136.96 45.95 137.04 46 137.13 46.04C137.21 46.09 137.29 46.14 137.37 46.19C137.43 46.23 137.49 46.27 137.54 46.31C137.6 46.35 137.65 46.4 137.71 46.45C137.76 46.49 137.81 46.54 137.86 46.6C137.9 46.65 137.95 46.7 137.99 46.76C138.03 46.82 138.07 46.88 138.11 46.95C138.14 47.01 138.17 47.08 138.19 47.15C138.21 47.22 138.23 47.29 138.24 47.36C138.25 47.43 138.26 47.51 138.26 47.58Z" />
	<path id="Layer" class="shp0" d="M148.92 49.27L145.92 49.27L145.92 48.87C145.97 48.87 146.02 48.87 146.06 48.87C146.11 48.87 146.16 48.86 146.21 48.86C146.26 48.85 146.3 48.84 146.35 48.83C146.4 48.82 146.44 48.8 146.49 48.79C146.52 48.78 146.54 48.77 146.57 48.76C146.59 48.75 146.62 48.73 146.64 48.71C146.66 48.69 146.68 48.67 146.7 48.65C146.71 48.63 146.73 48.61 146.74 48.58C146.75 48.55 146.76 48.51 146.77 48.48C146.78 48.45 146.78 48.41 146.79 48.38C146.79 48.34 146.8 48.31 146.8 48.27C146.8 48.24 146.8 48.2 146.8 48.17L146.8 44.47C146.8 44.42 146.81 44.37 146.8 44.33C146.8 44.28 146.79 44.23 146.77 44.18C146.76 44.14 146.74 44.09 146.72 44.05C146.7 44.01 146.67 43.97 146.64 43.93C146.59 43.9 146.53 43.87 146.47 43.84C146.42 43.82 146.36 43.8 146.29 43.79C146.23 43.77 146.17 43.76 146.11 43.76C146.05 43.76 145.98 43.76 145.92 43.77L145.92 43.37L148.92 43.37L148.92 43.77C148.87 43.77 148.83 43.77 148.78 43.77C148.73 43.77 148.68 43.78 148.64 43.78C148.59 43.79 148.54 43.8 148.5 43.8C148.45 43.81 148.41 43.83 148.36 43.84C148.33 43.85 148.31 43.86 148.28 43.87C148.26 43.89 148.23 43.9 148.21 43.92C148.19 43.94 148.17 43.96 148.15 43.98C148.14 44 148.12 44.02 148.11 44.05C148.1 44.08 148.09 44.12 148.08 44.15C148.07 44.18 148.07 44.22 148.06 44.25C148.06 44.29 148.05 44.32 148.05 44.36C148.05 44.39 148.05 44.43 148.05 44.46L148.05 48.16C148.05 48.19 148.05 48.23 148.05 48.26C148.05 48.3 148.06 48.33 148.06 48.36C148.07 48.4 148.07 48.43 148.08 48.46C148.09 48.5 148.1 48.53 148.11 48.56C148.12 48.59 148.14 48.61 148.15 48.63C148.17 48.66 148.19 48.68 148.21 48.69C148.23 48.71 148.25 48.73 148.27 48.74C148.3 48.76 148.32 48.77 148.35 48.78C148.4 48.8 148.44 48.81 148.49 48.82C148.54 48.83 148.58 48.84 148.63 48.85C148.68 48.85 148.73 48.86 148.78 48.86C148.82 48.86 148.87 48.86 148.92 48.86L148.92 49.27Z" />
	<path id="Layer" class="shp0" d="M162.28 45.06L161.87 45.06C161.87 44.99 161.86 44.92 161.85 44.85C161.84 44.78 161.82 44.71 161.8 44.64C161.78 44.57 161.76 44.5 161.73 44.44C161.7 44.37 161.67 44.31 161.63 44.25C161.61 44.21 161.58 44.18 161.55 44.15C161.52 44.11 161.49 44.08 161.46 44.06C161.42 44.03 161.39 44 161.35 43.98C161.31 43.96 161.27 43.94 161.23 43.93C161.19 43.92 161.15 43.91 161.11 43.9C161.07 43.89 161.03 43.89 160.99 43.88C160.95 43.88 160.91 43.87 160.86 43.87C160.82 43.87 160.78 43.87 160.74 43.87L160 43.87L160 48.18C160 48.21 160 48.25 160 48.28C160 48.31 160 48.35 160.01 48.38C160.01 48.42 160.02 48.45 160.03 48.48C160.03 48.51 160.04 48.55 160.05 48.58C160.06 48.61 160.07 48.63 160.09 48.65C160.11 48.68 160.13 48.7 160.15 48.72C160.17 48.74 160.19 48.75 160.21 48.77C160.24 48.78 160.26 48.79 160.29 48.8C160.33 48.82 160.38 48.83 160.43 48.84C160.47 48.85 160.52 48.86 160.57 48.87C160.61 48.87 160.66 48.88 160.71 48.88C160.76 48.88 160.8 48.88 160.85 48.88L160.85 49.28L157.85 49.28L157.85 48.88C157.91 48.89 157.97 48.89 158.03 48.89C158.09 48.89 158.16 48.88 158.21 48.86C158.27 48.85 158.33 48.83 158.39 48.81C158.45 48.78 158.5 48.75 158.55 48.72C158.58 48.68 158.61 48.64 158.63 48.6C158.65 48.56 158.67 48.51 158.68 48.47C158.7 48.42 158.71 48.37 158.71 48.32C158.72 48.28 158.71 48.23 158.71 48.18L158.71 43.86L158.09 43.86C158.04 43.86 157.99 43.86 157.94 43.86C157.89 43.86 157.83 43.87 157.78 43.87C157.73 43.88 157.68 43.88 157.63 43.89C157.58 43.9 157.53 43.91 157.48 43.92C157.44 43.93 157.39 43.95 157.35 43.97C157.31 43.99 157.27 44.01 157.24 44.04C157.2 44.07 157.17 44.1 157.13 44.13C157.1 44.17 157.07 44.2 157.05 44.24C157.01 44.3 156.98 44.36 156.96 44.43C156.93 44.49 156.91 44.56 156.89 44.63C156.87 44.7 156.86 44.77 156.85 44.84C156.84 44.91 156.84 44.98 156.84 45.05L156.43 45.05L156.43 43.39L162.25 43.39L162.28 45.06Z" />
	<path id="Layer" fill-rule="evenodd" class="shp0" d="M156.03 35.27L155.97 35.5L155.97 35.61C155.94 35.73 155.9 35.85 155.85 35.97C155.8 36.08 155.74 36.19 155.67 36.3C155.59 36.4 155.51 36.5 155.43 36.59C155.34 36.68 155.24 36.77 155.14 36.84C155.04 36.92 154.93 36.98 154.81 37.04C154.7 37.1 154.58 37.15 154.45 37.19C154.33 37.23 154.2 37.26 154.08 37.28C153.95 37.29 153.82 37.3 153.69 37.3C153.42 37.29 153.14 37.25 152.88 37.18C152.62 37.11 152.36 37.01 152.12 36.88C151.88 36.75 151.65 36.59 151.44 36.41C151.24 36.23 151.05 36.03 150.89 35.81C150.7 36.03 150.5 36.23 150.27 36.41C150.04 36.58 149.8 36.74 149.54 36.86C149.29 36.99 149.02 37.09 148.74 37.17C148.46 37.24 148.18 37.28 147.89 37.3C147.61 37.3 147.32 37.26 147.05 37.19C146.77 37.12 146.51 37.02 146.26 36.89C146.01 36.75 145.78 36.59 145.57 36.39C145.36 36.2 145.18 35.99 145.02 35.75C144.94 35.62 144.87 35.49 144.8 35.35C144.74 35.21 144.69 35.07 144.65 34.93C144.61 34.78 144.58 34.63 144.56 34.48C144.54 34.33 144.53 34.18 144.53 34.03C144.53 33.86 144.54 33.69 144.56 33.53C144.58 33.36 144.62 33.2 144.68 33.04C144.73 32.88 144.8 32.72 144.87 32.57C144.95 32.42 145.05 32.28 145.15 32.15C145.3 31.99 145.45 31.84 145.61 31.69C145.76 31.54 145.93 31.39 146.09 31.25C146.26 31.11 146.43 30.98 146.61 30.85C146.79 30.73 146.97 30.61 147.15 30.49C147.02 30.32 146.91 30.15 146.81 29.96C146.71 29.78 146.62 29.59 146.55 29.39C146.48 29.2 146.42 29 146.38 28.79C146.33 28.59 146.3 28.38 146.29 28.17C146.29 28.01 146.31 27.86 146.34 27.7C146.37 27.55 146.42 27.4 146.48 27.25C146.55 27.11 146.62 26.97 146.71 26.84C146.8 26.71 146.91 26.59 147.02 26.48C147.14 26.36 147.27 26.25 147.41 26.16C147.55 26.06 147.7 25.98 147.86 25.92C148.01 25.86 148.18 25.81 148.34 25.78C148.51 25.75 148.68 25.74 148.85 25.74C149 25.74 149.16 25.75 149.31 25.77C149.46 25.79 149.61 25.83 149.76 25.87C149.91 25.92 150.05 25.98 150.19 26.05C150.33 26.11 150.46 26.19 150.59 26.28C150.72 26.36 150.83 26.46 150.93 26.57C151.04 26.68 151.13 26.8 151.2 26.93C151.27 27.07 151.32 27.21 151.36 27.35C151.39 27.5 151.41 27.65 151.41 27.8C151.41 28.67 150.66 29.52 149.2 30.31L151.51 33.51C151.56 33.44 151.61 33.36 151.65 33.28C151.7 33.2 151.74 33.13 151.78 33.05C151.83 32.97 151.86 32.89 151.9 32.81C151.94 32.73 151.98 32.64 152.01 32.56C152.05 32.48 152.08 32.4 152.1 32.32C152.13 32.24 152.16 32.15 152.18 32.07C152.2 31.99 152.22 31.9 152.23 31.82C152.24 31.73 152.25 31.65 152.26 31.56C152.26 31.24 152.17 30.86 151.26 30.75L151.02 30.75L151.02 29.87L155.02 29.87L155.02 30.72L154.82 30.72C154.73 30.75 154.64 30.78 154.55 30.82C154.46 30.85 154.37 30.9 154.29 30.94C154.2 30.99 154.12 31.05 154.04 31.1C153.96 31.16 153.89 31.22 153.82 31.29C153.72 31.41 153.62 31.53 153.52 31.66C153.43 31.78 153.34 31.92 153.26 32.05C153.18 32.19 153.11 32.33 153.05 32.47C152.98 32.61 152.92 32.76 152.87 32.91C152.82 33.03 152.77 33.15 152.72 33.27C152.66 33.4 152.6 33.51 152.54 33.63C152.48 33.75 152.42 33.87 152.35 33.98C152.29 34.1 152.22 34.21 152.15 34.32C152.23 34.45 152.32 34.57 152.41 34.69C152.5 34.81 152.59 34.93 152.69 35.05C152.79 35.16 152.9 35.27 153 35.37C153.11 35.48 153.22 35.58 153.34 35.68C153.41 35.73 153.47 35.77 153.55 35.8C153.62 35.84 153.69 35.87 153.77 35.89C153.84 35.92 153.92 35.94 154 35.95C154.08 35.96 154.16 35.97 154.24 35.97C154.34 35.96 154.45 35.95 154.54 35.91C154.64 35.88 154.74 35.84 154.82 35.78C154.91 35.73 154.99 35.66 155.06 35.58C155.13 35.51 155.19 35.42 155.24 35.33L155.29 35.25L155.88 35.25L156.03 35.27ZM148.67 29.5C149.51 29 150 28.4 149.94 27.81C149.94 27.73 149.94 27.65 149.93 27.57C149.92 27.5 149.9 27.42 149.88 27.34C149.85 27.27 149.82 27.2 149.78 27.13C149.74 27.06 149.7 26.99 149.65 26.93C149.55 26.83 149.43 26.75 149.31 26.7C149.18 26.65 149.04 26.62 148.9 26.62C148.76 26.62 148.62 26.65 148.49 26.7C148.37 26.75 148.25 26.83 148.15 26.93C148.1 26.98 148.06 27.04 148.02 27.1C147.99 27.17 147.96 27.23 147.93 27.3C147.91 27.37 147.89 27.44 147.88 27.51C147.87 27.58 147.87 27.65 147.87 27.72C147.89 27.88 147.93 28.04 147.97 28.2C148.02 28.36 148.08 28.51 148.14 28.66C148.21 28.81 148.29 28.96 148.37 29.1C148.46 29.24 148.56 29.37 148.66 29.5L148.67 29.5ZM147.72 31.25C147.72 31.25 147.72 31.25 147.72 31.25C147.73 31.25 147.73 31.25 147.73 31.25L147.72 31.25ZM147.72 31.25C147.62 31.32 147.53 31.38 147.43 31.45C147.34 31.52 147.25 31.6 147.16 31.68C147.07 31.76 146.99 31.85 146.91 31.93C146.83 32.02 146.75 32.11 146.68 32.21C146.62 32.3 146.56 32.39 146.51 32.48C146.46 32.58 146.42 32.68 146.38 32.78C146.34 32.88 146.32 32.98 146.3 33.09C146.28 33.2 146.26 33.3 146.26 33.41C146.26 33.57 146.28 33.73 146.32 33.88C146.35 34.04 146.4 34.19 146.47 34.34C146.53 34.48 146.61 34.62 146.7 34.75C146.79 34.88 146.89 35.01 147 35.12C147.1 35.24 147.21 35.35 147.33 35.45C147.45 35.54 147.58 35.63 147.72 35.7C147.86 35.77 148.01 35.82 148.16 35.86C148.31 35.89 148.46 35.92 148.62 35.92C148.79 35.91 148.95 35.88 149.11 35.84C149.28 35.8 149.43 35.74 149.58 35.66C149.73 35.59 149.87 35.5 150 35.39C150.13 35.29 150.25 35.17 150.36 35.04C149.35 33.51 148.46 32.25 147.72 31.25Z" />
	<path id="Layer" class="shp0" d="M175.83 43.78C175.8 43.78 175.76 43.79 175.73 43.79C175.69 43.8 175.66 43.8 175.62 43.81C175.59 43.82 175.56 43.83 175.53 43.85C175.49 43.86 175.46 43.87 175.43 43.89C175.4 43.91 175.37 43.93 175.34 43.95C175.31 43.98 175.29 44 175.26 44.02C175.23 44.05 175.21 44.08 175.19 44.1C175.16 44.13 175.14 44.16 175.12 44.19C175.01 44.33 174.85 44.55 174.65 44.87L173.41 46.79L173.41 48.18C173.41 48.21 173.41 48.24 173.41 48.28C173.41 48.31 173.41 48.34 173.42 48.37C173.42 48.4 173.43 48.44 173.43 48.47C173.44 48.5 173.45 48.53 173.46 48.56C173.47 48.59 173.48 48.61 173.5 48.63C173.51 48.66 173.53 48.68 173.55 48.7C173.57 48.71 173.59 48.73 173.62 48.75C173.64 48.76 173.66 48.77 173.69 48.78C173.74 48.8 173.78 48.81 173.83 48.83C173.87 48.84 173.92 48.85 173.97 48.86C174.02 48.86 174.07 48.87 174.11 48.87C174.16 48.87 174.21 48.87 174.26 48.87L174.26 49.27L171.26 49.27L171.26 48.87C171.31 48.87 171.35 48.87 171.4 48.87C171.45 48.87 171.5 48.86 171.54 48.85C171.59 48.85 171.64 48.84 171.68 48.83C171.73 48.82 171.77 48.8 171.82 48.79C171.85 48.78 171.87 48.77 171.9 48.76C171.92 48.75 171.95 48.73 171.97 48.71C171.99 48.69 172.01 48.67 172.03 48.65C172.04 48.63 172.06 48.61 172.07 48.58C172.08 48.55 172.09 48.51 172.1 48.48C172.11 48.45 172.11 48.41 172.12 48.38C172.12 48.34 172.13 48.31 172.13 48.27C172.13 48.24 172.13 48.2 172.13 48.17L172.13 46.86L170.65 44.4L170.65 44.34L170.65 44.34C170.63 44.3 170.61 44.26 170.58 44.22C170.56 44.19 170.53 44.15 170.5 44.12C170.47 44.08 170.44 44.05 170.41 44.02C170.38 43.99 170.34 43.96 170.31 43.93C170.28 43.91 170.24 43.9 170.21 43.88C170.17 43.87 170.13 43.86 170.1 43.85C170.06 43.84 170.02 43.83 169.98 43.83C169.95 43.82 169.91 43.82 169.87 43.82L169.87 43.42L172.63 43.42L172.63 43.82L172.3 43.82C172.28 43.82 172.26 43.82 172.25 43.83C172.23 43.83 172.21 43.84 172.2 43.84C172.18 43.85 172.16 43.86 172.15 43.86C172.13 43.87 172.11 43.88 172.1 43.89C172.09 43.9 172.08 43.9 172.07 43.91C172.06 43.92 172.05 43.93 172.04 43.94C172.03 43.95 172.02 43.96 172.02 43.97C172.01 43.98 172 43.99 172 44C172 44.02 172 44.03 172 44.05C172.01 44.07 172.01 44.09 172.01 44.1C172.02 44.12 172.02 44.14 172.03 44.15C172.04 44.17 172.04 44.18 172.05 44.2C172.07 44.24 172.09 44.28 172.11 44.31C172.12 44.35 172.14 44.39 172.16 44.42C172.18 44.46 172.2 44.5 172.23 44.53C172.25 44.57 172.27 44.6 172.29 44.64L173.21 46.19L174.09 44.81C174.13 44.76 174.16 44.71 174.19 44.66C174.22 44.61 174.25 44.55 174.27 44.5C174.29 44.44 174.31 44.38 174.33 44.33C174.35 44.27 174.36 44.21 174.37 44.15C174.37 43.97 174.31 43.86 174.19 43.81C174.15 43.8 174.11 43.79 174.07 43.78C174.03 43.77 173.99 43.76 173.95 43.75C173.91 43.75 173.87 43.74 173.82 43.74C173.78 43.74 173.74 43.74 173.7 43.74L173.7 43.34L175.84 43.34L175.83 43.78Z" />
	<path id="Layer" fill-rule="evenodd" class="shp0" d="M180.45 46.52C181.02 46.53 181.53 46.89 181.74 47.42C181.95 47.95 181.82 48.56 181.41 48.96C181 49.36 180.39 49.47 179.86 49.25C179.34 49.02 179 48.5 179 47.93C179 47.74 179.03 47.56 179.1 47.39C179.17 47.21 179.28 47.06 179.41 46.93C179.54 46.8 179.69 46.69 179.87 46.62C180.04 46.55 180.22 46.52 180.41 46.52L180.45 46.52ZM180.45 46.74C179.96 46.72 179.5 46.99 179.3 47.44C179.09 47.88 179.18 48.41 179.52 48.76C179.86 49.12 180.38 49.23 180.83 49.05C181.29 48.87 181.59 48.43 181.59 47.94C181.6 47.79 181.57 47.63 181.52 47.49C181.46 47.34 181.38 47.21 181.27 47.1C181.17 46.99 181.04 46.9 180.9 46.84C180.76 46.78 180.6 46.74 180.45 46.74ZM180.19 48.74L179.94 48.74L179.94 47.18C179.98 47.18 180.01 47.18 180.05 47.17C180.09 47.17 180.13 47.17 180.16 47.17C180.2 47.17 180.24 47.17 180.28 47.17C180.32 47.18 180.35 47.18 180.39 47.18C180.43 47.18 180.48 47.18 180.52 47.18C180.56 47.19 180.6 47.19 180.64 47.2C180.69 47.21 180.73 47.23 180.77 47.24C180.81 47.26 180.84 47.28 180.88 47.3C180.94 47.35 180.98 47.41 181 47.48C181.03 47.56 181.03 47.63 181.01 47.71C180.99 47.78 180.96 47.85 180.9 47.9C180.85 47.95 180.78 47.99 180.71 48.01C180.85 48.01 180.94 48.16 180.97 48.39C180.97 48.42 180.98 48.46 180.98 48.49C180.99 48.52 181 48.56 181 48.59C181.01 48.62 181.02 48.65 181.03 48.69C181.04 48.72 181.06 48.75 181.07 48.78L180.81 48.78C180.79 48.75 180.78 48.72 180.77 48.68C180.76 48.65 180.75 48.62 180.74 48.58C180.73 48.55 180.72 48.52 180.71 48.48C180.71 48.45 180.7 48.41 180.7 48.38C180.7 48.34 180.69 48.3 180.67 48.26C180.65 48.22 180.63 48.19 180.59 48.16C180.56 48.14 180.52 48.12 180.48 48.11C180.44 48.09 180.4 48.09 180.36 48.1L180.18 48.1L180.19 48.74ZM180.19 47.87L180.37 47.87C180.58 47.87 180.75 47.79 180.75 47.6C180.75 47.41 180.65 47.33 180.37 47.33L180.19 47.33L180.19 47.87Z" />
	<text id="SmartScript " style="transform: matrix(1,0,0,1,186,42)" >
		<tspan x="0" y="0" class="txt2">SmartScript</tspan>
	</text>
</svg>